<svg width="44" height="44" viewBox="0 0 44 44" fill="none" xmlns="http://www.w3.org/2000/svg">
<path fill-rule="evenodd" clip-rule="evenodd" d="M33.5434 21.945C32.9198 23.0817 31.71 23.8333 30.335 23.8333H16.6765L14.6599 27.5H36.6598V31.1667H14.6599C11.8732 31.1667 10.1133 28.1783 11.4516 25.7217L13.9265 21.2483L7.32658 7.33332H3.65991V3.66666H9.65495L11.3782 7.33332H38.5115C39.905 7.33332 40.7848 8.83667 40.1065 10.0467L33.5434 21.945ZM35.395 11H13.12L17.465 20.1667H30.335L35.395 11ZM14.6599 33C12.6433 33 11.0116 34.65 11.0116 36.6667C11.0116 38.6833 12.6433 40.3333 14.6599 40.3333C16.6765 40.3333 18.3266 38.6833 18.3266 36.6667C18.3266 34.65 16.6765 33 14.6599 33ZM29.3448 36.6667C29.3448 34.65 30.9767 33 32.9932 33C35.0098 33 36.6598 34.65 36.6598 36.6667C36.6598 38.6833 35.0098 40.3333 32.9932 40.3333C30.9767 40.3333 29.3448 38.6833 29.3448 36.6667Z" fill="#FCA311"/>
</svg>
