<svg width="20" height="32" viewBox="0 0 20 32" fill="none" xmlns="http://www.w3.org/2000/svg">
<path d="M10.275 13.7921C6.01876 12.762 4.65001 11.6971 4.65001 10.0385C4.65001 8.13558 6.54376 6.80875 9.71251 6.80875C13.05 6.80875 14.2875 8.29271 14.4 10.475H18.5438C18.4125 7.47217 16.4438 4.71375 12.525 3.82338V0H6.90001V3.771C3.2625 4.50425 0.337501 6.704 0.337501 10.0735C0.337501 14.1063 3.91876 16.114 9.15001 17.2838C13.8375 18.3313 14.775 19.8676 14.775 21.4912C14.775 22.6958 13.8563 24.6163 9.71251 24.6163C5.85001 24.6163 4.33125 23.0101 4.125 20.95H0C0.225 24.7734 3.3 26.9208 6.90001 27.6365V31.425H12.525V27.6715C16.1813 27.0255 19.0875 25.0527 19.0875 21.4738C19.0875 16.5156 14.5313 14.8221 10.275 13.7921Z" fill="#E5E5E5"/>
</svg>
