<svg width="45" height="45" viewBox="0 0 45 45" fill="none" xmlns="http://www.w3.org/2000/svg">
<path fill-rule="evenodd" clip-rule="evenodd" d="M34.3058 22.4438C33.6681 23.6063 32.4308 24.375 31.0245 24.375H17.0556L14.9932 28.125H37.4931V31.875H14.9932C12.1431 31.875 10.3432 28.8188 11.7119 26.3062L14.2431 21.7313L7.49316 7.5H3.74316V3.75H9.87445L11.6368 7.5H39.3868C40.812 7.5 41.7118 9.03752 41.0181 10.275L34.3058 22.4438ZM36.1995 11.25H13.4182L17.862 20.625H31.0245L36.1995 11.25ZM14.9932 33.75C12.9307 33.75 11.2619 35.4375 11.2619 37.5C11.2619 39.5625 12.9307 41.25 14.9932 41.25C17.0556 41.25 18.7432 39.5625 18.7432 37.5C18.7432 35.4375 17.0556 33.75 14.9932 33.75ZM30.0118 37.5C30.0118 35.4375 31.6808 33.75 33.7431 33.75C35.8056 33.75 37.4931 35.4375 37.4931 37.5C37.4931 39.5625 35.8056 41.25 33.7431 41.25C31.6808 41.25 30.0118 39.5625 30.0118 37.5Z" fill="#E5E5E5"/>
</svg>
