<svg width="24" height="24" viewBox="0 0 24 24" fill="none" xmlns="http://www.w3.org/2000/svg">
<path fill-rule="evenodd" clip-rule="evenodd" d="M7.84499 4.77542C10.437 4.40842 13.563 4.40842 16.155 4.77542C18.51 5.10942 20.335 6.76142 20.683 8.54142C21.106 10.6964 21.106 13.3044 20.683 15.4594C20.334 17.2394 18.51 18.8914 16.155 19.2254C13.563 19.5924 10.436 19.5924 7.84499 19.2254C5.48999 18.8914 3.66599 17.2394 3.31699 15.4594C2.89399 13.3044 2.89399 10.6964 3.31699 8.54142C3.66599 6.76142 5.48999 5.10942 7.84499 4.77542ZM16.435 2.79542C13.658 2.40242 10.342 2.40242 7.56499 2.79542C4.54999 3.22242 1.89999 5.37342 1.35499 8.15742C0.881994 10.5664 0.881994 13.4344 1.35499 15.8434C1.89999 18.6274 4.54999 20.7784 7.56499 21.2054C10.342 21.5984 13.658 21.5984 16.435 21.2054C19.45 20.7784 22.1 18.6274 22.645 15.8434C23.118 13.4344 23.118 10.5664 22.645 8.15742C22.1 5.37342 19.45 3.22242 16.435 2.79542ZM10.555 7.16842C10.4044 7.06794 10.2293 7.01023 10.0485 7.00145C9.86768 6.99267 9.68786 7.03314 9.52823 7.11855C9.3686 7.20396 9.23515 7.3311 9.14212 7.48641C9.04909 7.64172 8.99997 7.81938 8.99999 8.00042V16.0004C8.99997 16.1815 9.04909 16.3591 9.14212 16.5144C9.23515 16.6697 9.3686 16.7969 9.52823 16.8823C9.68786 16.9677 9.86768 17.0082 10.0485 16.9994C10.2293 16.9906 10.4044 16.9329 10.555 16.8324L16.555 12.8324C16.692 12.7411 16.8042 12.6174 16.8819 12.4722C16.9596 12.3271 17.0002 12.165 17.0002 12.0004C17.0002 11.8358 16.9596 11.6737 16.8819 11.5286C16.8042 11.3835 16.692 11.2597 16.555 11.1684L10.555 7.16842ZM14.197 12.0004L11 14.1324V9.86942L14.197 12.0004Z" fill="#FCA311"/>
</svg>
